<?xml version="1.0" encoding="UTF-8" standalone="no"?>
<!-- Created with dmtxwrite (http://www.libdmtx.org/) -->
<svg
   xmlns:svg="http://www.w3.org/2000/svg"
   xmlns="http://www.w3.org/2000/svg"
   xmlns:xlink="http://www.w3.org/1999/xlink"
   version="1.0"
   width="80"
   height="80"
   id="svg2">
  <defs>
  <symbol id="dmtx_0001">
    <desc>Layout:80x80 Symbol:12x12 Data Matrix</desc>
    <rect width="5" height="5" x="10" y="65" />
    <rect width="5" height="5" x="15" y="65" />
    <rect width="5" height="5" x="20" y="65" />
    <rect width="5" height="5" x="25" y="65" />
    <rect width="5" height="5" x="30" y="65" />
    <rect width="5" height="5" x="35" y="65" />
    <rect width="5" height="5" x="40" y="65" />
    <rect width="5" height="5" x="45" y="65" />
    <rect width="5" height="5" x="50" y="65" />
    <rect width="5" height="5" x="55" y="65" />
    <rect width="5" height="5" x="60" y="65" />
    <rect width="5" height="5" x="65" y="65" />
    <rect width="5" height="5" x="10" y="60" />
    <rect width="5" height="5" x="20" y="60" />
    <rect width="5" height="5" x="35" y="60" />
    <rect width="5" height="5" x="40" y="60" />
    <rect width="5" height="5" x="50" y="60" />
    <rect width="5" height="5" x="60" y="60" />
    <rect width="5" height="5" x="10" y="55" />
    <rect width="5" height="5" x="20" y="55" />
    <rect width="5" height="5" x="25" y="55" />
    <rect width="5" height="5" x="40" y="55" />
    <rect width="5" height="5" x="55" y="55" />
    <rect width="5" height="5" x="65" y="55" />
    <rect width="5" height="5" x="10" y="50" />
    <rect width="5" height="5" x="15" y="50" />
    <rect width="5" height="5" x="35" y="50" />
    <rect width="5" height="5" x="45" y="50" />
    <rect width="5" height="5" x="10" y="45" />
    <rect width="5" height="5" x="15" y="45" />
    <rect width="5" height="5" x="20" y="45" />
    <rect width="5" height="5" x="25" y="45" />
    <rect width="5" height="5" x="30" y="45" />
    <rect width="5" height="5" x="60" y="45" />
    <rect width="5" height="5" x="65" y="45" />
    <rect width="5" height="5" x="10" y="40" />
    <rect width="5" height="5" x="15" y="40" />
    <rect width="5" height="5" x="20" y="40" />
    <rect width="5" height="5" x="25" y="40" />
    <rect width="5" height="5" x="30" y="40" />
    <rect width="5" height="5" x="45" y="40" />
    <rect width="5" height="5" x="55" y="40" />
    <rect width="5" height="5" x="60" y="40" />
    <rect width="5" height="5" x="10" y="35" />
    <rect width="5" height="5" x="15" y="35" />
    <rect width="5" height="5" x="20" y="35" />
    <rect width="5" height="5" x="40" y="35" />
    <rect width="5" height="5" x="65" y="35" />
    <rect width="5" height="5" x="10" y="30" />
    <rect width="5" height="5" x="20" y="30" />
    <rect width="5" height="5" x="25" y="30" />
    <rect width="5" height="5" x="40" y="30" />
    <rect width="5" height="5" x="45" y="30" />
    <rect width="5" height="5" x="50" y="30" />
    <rect width="5" height="5" x="60" y="30" />
    <rect width="5" height="5" x="10" y="25" />
    <rect width="5" height="5" x="15" y="25" />
    <rect width="5" height="5" x="50" y="25" />
    <rect width="5" height="5" x="65" y="25" />
    <rect width="5" height="5" x="10" y="20" />
    <rect width="5" height="5" x="20" y="20" />
    <rect width="5" height="5" x="30" y="20" />
    <rect width="5" height="5" x="45" y="20" />
    <rect width="5" height="5" x="50" y="20" />
    <rect width="5" height="5" x="60" y="20" />
    <rect width="5" height="5" x="10" y="15" />
    <rect width="5" height="5" x="20" y="15" />
    <rect width="5" height="5" x="25" y="15" />
    <rect width="5" height="5" x="30" y="15" />
    <rect width="5" height="5" x="35" y="15" />
    <rect width="5" height="5" x="45" y="15" />
    <rect width="5" height="5" x="60" y="15" />
    <rect width="5" height="5" x="65" y="15" />
    <rect width="5" height="5" x="10" y="10" />
    <rect width="5" height="5" x="20" y="10" />
    <rect width="5" height="5" x="30" y="10" />
    <rect width="5" height="5" x="40" y="10" />
    <rect width="5" height="5" x="50" y="10" />
    <rect width="5" height="5" x="60" y="10" />
  </symbol>
  </defs>

  <use xlink:href="#dmtx_0001" x='0' y='0' style="fill:#000000;fill-opacity:1;stroke:none" />

</svg>
